<svg version="1.0" viewBox="0 0 150px 151.046px" width="150" height="151.046" xmlns="http://www.w3.org/2000/svg" xmlns:svg="http://www.w3.org/2000/svg">
  <g transform="translate(-121.46, -311.534)">
    <g transform="matrix(2.10184, 0, 0, 2.10184, -133.829, -509.688)">
      <g transform="matrix(1.24563, 0, 0, -1.25437, -114.04, 1407.67)">
        <path d="M189.26,810.52h56.89v-56.89h-56.89v56.89z" fill="#0a3d68" fill-rule="nonzero" stroke="#0a3d68" stroke-linecap="butt" stroke-linejoin="miter" stroke-miterlimit="3.86400008" stroke-width="0.40099999" style="stroke-dasharray: none;"/>
      </g>
      <path d="M152.81,397.71c0,0,0.01,18.33,0.01,19.17,0,1.34,1.64,7.54,10.12,7.54,8.47,0,9.83-6.18,9.83-7.50v-10.95l-6.51-6.88v17.12c0,0.35,0.03,2.09-3.35,2.09-3.50,0-3.50-1.71-3.50-2.13v-18.45l-6.60-0.01" fill="#FFF" fill-rule="nonzero"/>
      <path d="M166.92,397.72l6.20,6.47h4.48v19.83h6.76v-19.83h5.23v-6.47h-22.67" fill="#FFF" fill-rule="nonzero"/>
      <path d="M149.39,418.37l5.54,5.69h-7.47l-12.17-12.80h7.18l1.93,1.98c0.27-0.64,0.46-1.38,0.46-2.49,0-3.93-3.30-6.94-7.05-6.94-3.76,0-6.78,3.24-6.78,7.03,0,3.79,3.07,6.93,6.91,6.93,0.41,0,0.79,0,1.24-0.14,0.06-0.02,5.03,5.38,4.99,5.41-1.42,1.02-4.12,1.53-6.23,1.53-7.41,0-13.18-6.38-13.18-13.64,0-7.25,5.86-13.36,13.37-13.36,7.50,0,13.41,6.15,13.41,13.64,0.05,3-1.42,6.10-2.15,7.16" fill="#FFF" fill-rule="nonzero"/>
    </g>
  </g>
</svg>